<svg width="171" height="55" viewBox="0 0 171 55" fill="none" xmlns="http://www.w3.org/2000/svg">
<path d="M69.2017 29.2059C68.1732 29.2059 67.197 28.9945 66.2729 28.5717C65.3637 28.149 64.5589 27.5677 63.8584 26.8279C63.1728 26.0729 62.6362 25.1972 62.2487 24.2007C61.8612 23.2042 61.6674 22.1246 61.6674 20.9621C61.6674 19.8599 61.8612 18.8256 62.2487 17.8593C62.6362 16.8779 63.1802 16.0173 63.8807 15.2774C64.5813 14.5376 65.401 13.9563 66.34 13.5336C67.279 13.1108 68.2999 12.8994 69.4029 12.8994C70.8933 12.8994 72.1677 13.224 73.2259 13.8733C74.299 14.5074 75.1038 15.3529 75.6404 16.4098L73.3377 18.1311C72.9352 17.3308 72.3689 16.7194 71.6385 16.2966C70.9231 15.8738 70.1406 15.6625 69.2911 15.6625C68.6204 15.6625 68.0093 15.8059 67.4578 16.0928C66.9064 16.3796 66.4294 16.7722 66.027 17.2705C65.6246 17.7687 65.3116 18.3425 65.088 18.9917C64.8793 19.6409 64.775 20.3279 64.775 21.0526C64.775 21.8227 64.8868 22.5323 65.1104 23.1815C65.3488 23.8308 65.6767 24.397 66.0941 24.8801C66.5263 25.3633 67.0256 25.7483 67.592 26.0352C68.1583 26.307 68.7843 26.4428 69.4699 26.4428C70.2748 26.4428 71.0424 26.2315 71.7727 25.8087C72.5179 25.3859 73.211 24.7669 73.8519 23.9516V27.0317C72.5254 28.4812 70.9753 29.2059 69.2017 29.2059ZM73.6283 23.1136H70.4313V20.8262H76.177V29.0926H73.6283V23.1136Z" fill="white"/>
<path d="M83.9484 29.3191C83.0094 29.3191 82.1598 29.1606 81.3997 28.8435C80.6396 28.5113 79.9912 28.0659 79.4547 27.5073C78.9181 26.9335 78.5008 26.2843 78.2027 25.5596C77.9195 24.8197 77.7779 24.0422 77.7779 23.2268C77.7779 22.0944 78.0238 21.0602 78.5157 20.1241C79.0224 19.188 79.7379 18.4406 80.6619 17.8819C81.6009 17.3082 82.7039 17.0213 83.9707 17.0213C85.2525 17.0213 86.348 17.3082 87.2572 17.8819C88.1664 18.4406 88.8594 19.188 89.3364 20.1241C89.8282 21.0451 90.0741 22.0416 90.0741 23.1136C90.0741 23.2948 90.0667 23.4835 90.0518 23.6798C90.0369 23.861 90.022 24.012 90.0071 24.1328H80.9526C81.0122 24.7367 81.1836 25.2652 81.4668 25.7181C81.7649 26.1711 82.1375 26.5183 82.5846 26.7599C83.0467 26.9864 83.5385 27.0996 84.0602 27.0996C84.6564 27.0996 85.2153 26.9562 85.7369 26.6693C86.2735 26.3673 86.6387 25.9748 86.8324 25.4916L89.4034 26.2164C89.1203 26.8203 88.7104 27.3563 88.1738 27.8244C87.6522 28.2924 87.0336 28.6623 86.3182 28.9341C85.6028 29.1908 84.8129 29.3191 83.9484 29.3191ZM80.8855 22.2077H87.0113C86.9517 21.6037 86.7803 21.0828 86.4971 20.645C86.2288 20.192 85.8711 19.8448 85.4239 19.6032C84.9768 19.3465 84.4775 19.2182 83.926 19.2182C83.3895 19.2182 82.8976 19.3465 82.4505 19.6032C82.0183 19.8448 81.6605 20.192 81.3774 20.645C81.1091 21.0828 80.9451 21.6037 80.8855 22.2077Z" fill="white"/>
<path d="M96.2141 29.3191C95.2155 29.3191 94.2616 29.153 93.3524 28.8209C92.4432 28.4887 91.6607 27.998 91.0049 27.3488L92.078 25.3784C92.7786 25.9521 93.4642 26.3749 94.1349 26.6467C94.8205 26.9184 95.4763 27.0543 96.1023 27.0543C96.6835 27.0543 97.1456 26.9486 97.4884 26.7373C97.8461 26.5259 98.025 26.2088 98.025 25.7861C98.025 25.4992 97.9281 25.2803 97.7343 25.1293C97.5406 24.9632 97.2574 24.8197 96.8848 24.699C96.527 24.5782 96.0874 24.4423 95.5657 24.2913C94.7012 24.0044 93.9784 23.7251 93.3971 23.4533C92.8158 23.1815 92.3761 22.8418 92.078 22.4342C91.7949 22.0114 91.6533 21.4754 91.6533 20.8262C91.6533 20.041 91.847 19.3692 92.2345 18.8105C92.637 18.2368 93.1884 17.7914 93.889 17.4743C94.6044 17.1572 95.439 16.9987 96.3929 16.9987C97.2276 16.9987 98.0175 17.1346 98.7627 17.4063C99.5079 17.663 100.186 18.0858 100.797 18.6746L99.5899 20.5997C98.9937 20.1316 98.4274 19.7919 97.8908 19.5805C97.3542 19.3541 96.8102 19.2408 96.2588 19.2408C95.9458 19.2408 95.6477 19.2786 95.3645 19.3541C95.0962 19.4295 94.8726 19.5579 94.6938 19.7391C94.5298 19.9052 94.4479 20.1467 94.4479 20.4638C94.4479 20.7507 94.5224 20.9772 94.6714 21.1432C94.8354 21.2942 95.0739 21.4301 95.3869 21.5509C95.7147 21.6717 96.1097 21.8076 96.5718 21.9586C97.5107 22.2303 98.3007 22.5097 98.9416 22.7965C99.5974 23.0834 100.089 23.4382 100.417 23.861C100.745 24.2686 100.909 24.8348 100.909 25.5596C100.909 26.7373 100.484 27.6583 99.6346 28.3226C98.7851 28.987 97.6449 29.3191 96.2141 29.3191Z" fill="white"/>
<path d="M109.901 28.4812C109.648 28.5868 109.342 28.7076 108.984 28.8435C108.627 28.9794 108.239 29.0851 107.822 29.1606C107.42 29.2512 107.01 29.2965 106.592 29.2965C106.041 29.2965 105.534 29.1983 105.072 29.0021C104.61 28.8058 104.237 28.4963 103.954 28.0735C103.686 27.6356 103.552 27.0694 103.552 26.3749V19.5579H102.009V17.2252H103.552V13.375H106.548V17.2252H109.007V19.5579H106.548V25.3557C106.563 25.7634 106.674 26.0578 106.883 26.239C107.092 26.4202 107.352 26.5108 107.665 26.5108C107.978 26.5108 108.284 26.4579 108.582 26.3523C108.88 26.2466 109.119 26.156 109.297 26.0805L109.901 28.4812Z" fill="white"/>
<path d="M110.657 25.5822C110.657 24.8122 110.865 24.1403 111.283 23.5666C111.715 22.9777 112.311 22.5248 113.071 22.2077C113.831 21.8906 114.703 21.7321 115.687 21.7321C116.179 21.7321 116.678 21.7698 117.185 21.8453C117.691 21.9208 118.131 22.0416 118.504 22.2077V21.5735C118.504 20.8186 118.28 20.2373 117.833 19.8297C117.401 19.422 116.752 19.2182 115.888 19.2182C115.247 19.2182 114.636 19.3314 114.055 19.5579C113.473 19.7844 112.862 20.1165 112.222 20.5544L111.26 18.5614C112.035 18.048 112.825 17.663 113.63 17.4063C114.45 17.1497 115.307 17.0213 116.201 17.0213C117.87 17.0213 119.167 17.4441 120.091 18.2896C121.03 19.1351 121.5 20.343 121.5 21.9133V25.6955C121.5 26.0125 121.552 26.239 121.656 26.3749C121.775 26.5108 121.962 26.5938 122.215 26.624V29.0926C121.947 29.1379 121.701 29.1757 121.477 29.2059C121.269 29.2361 121.09 29.2512 120.941 29.2512C120.344 29.2512 119.89 29.1153 119.577 28.8435C119.279 28.5717 119.092 28.2396 119.018 27.847L118.951 27.2355C118.444 27.8999 117.811 28.4132 117.051 28.7756C116.29 29.1379 115.515 29.3191 114.725 29.3191C113.95 29.3191 113.25 29.1606 112.624 28.8435C112.013 28.5113 111.528 28.0659 111.171 27.5073C110.828 26.9335 110.657 26.2919 110.657 25.5822ZM117.945 26.1937C118.109 26.0125 118.243 25.8313 118.347 25.6502C118.452 25.469 118.504 25.3029 118.504 25.1519V23.9516C118.146 23.8006 117.759 23.6874 117.341 23.6119C116.924 23.5213 116.529 23.476 116.156 23.476C115.381 23.476 114.74 23.6496 114.234 23.9969C113.742 24.329 113.496 24.7744 113.496 25.3331C113.496 25.6351 113.578 25.9219 113.742 26.1937C113.906 26.4655 114.144 26.6844 114.457 26.8505C114.77 27.0166 115.143 27.0996 115.575 27.0996C116.022 27.0996 116.462 27.0166 116.894 26.8505C117.326 26.6693 117.677 26.4504 117.945 26.1937ZM117.632 15.4586C117.185 15.4586 116.797 15.3756 116.469 15.2095C116.156 15.0283 115.866 14.8547 115.597 14.6886C115.329 14.5225 115.031 14.4395 114.703 14.4395C114.375 14.4395 114.129 14.5301 113.965 14.7112C113.816 14.8773 113.719 15.051 113.675 15.2321C113.645 15.4133 113.63 15.5115 113.63 15.5266H111.976C111.976 15.3907 112.02 15.1642 112.11 14.8471C112.199 14.5301 112.341 14.2054 112.535 13.8733C112.743 13.526 113.011 13.2316 113.339 12.99C113.682 12.7484 114.099 12.6276 114.591 12.6276C115.053 12.6276 115.433 12.7182 115.732 12.8994C116.03 13.0806 116.313 13.2618 116.581 13.443C116.864 13.609 117.185 13.6921 117.542 13.6921C117.9 13.6921 118.161 13.6015 118.325 13.4203C118.489 13.2391 118.593 13.0579 118.638 12.8768C118.698 12.6956 118.727 12.5899 118.727 12.5597H120.382C120.382 12.6654 120.337 12.8692 120.248 13.1712C120.158 13.4732 120.002 13.8053 119.778 14.1677C119.569 14.515 119.286 14.8169 118.929 15.0736C118.586 15.3303 118.153 15.4586 117.632 15.4586Z" fill="white"/>
<path d="M129.709 29.3191C128.756 29.3191 127.898 29.1606 127.138 28.8435C126.378 28.5113 125.73 28.0584 125.193 27.4846C124.672 26.9109 124.269 26.2541 123.986 25.5143C123.703 24.7744 123.561 23.9969 123.561 23.1815C123.561 22.3511 123.703 21.566 123.986 20.8262C124.269 20.0863 124.672 19.4295 125.193 18.8558C125.73 18.2821 126.378 17.8366 127.138 17.5196C127.898 17.1874 128.756 17.0213 129.709 17.0213C130.663 17.0213 131.513 17.1874 132.258 17.5196C133.018 17.8366 133.667 18.2821 134.203 18.8558C134.74 19.4295 135.142 20.0863 135.41 20.8262C135.694 21.566 135.835 22.3511 135.835 23.1815C135.835 23.9969 135.694 24.7744 135.41 25.5143C135.142 26.2541 134.74 26.9109 134.203 27.4846C133.681 28.0584 133.041 28.5113 132.28 28.8435C131.52 29.1606 130.663 29.3191 129.709 29.3191ZM126.647 23.1815C126.647 23.8761 126.781 24.4951 127.049 25.0387C127.317 25.5671 127.682 25.9823 128.144 26.2843C128.606 26.5863 129.128 26.7373 129.709 26.7373C130.276 26.7373 130.79 26.5863 131.252 26.2843C131.714 25.9672 132.079 25.5445 132.347 25.016C132.631 24.4725 132.772 23.8534 132.772 23.1589C132.772 22.4795 132.631 21.868 132.347 21.3244C132.079 20.7809 131.714 20.3581 131.252 20.0561C130.79 19.7542 130.276 19.6032 129.709 19.6032C129.128 19.6032 128.606 19.7617 128.144 20.0788C127.682 20.3808 127.317 20.8035 127.049 21.3471C126.781 21.8755 126.647 22.487 126.647 23.1815Z" fill="white"/>
<path d="M142.513 23.1589C142.513 22.0114 142.736 20.9772 143.183 20.0561C143.631 19.12 144.249 18.3802 145.039 17.8366C145.829 17.2931 146.731 17.0213 147.744 17.0213C148.609 17.0213 149.384 17.2403 150.069 17.6781C150.77 18.1009 151.314 18.6444 151.701 19.3088V12.5597H154.697V25.6955C154.697 26.0125 154.749 26.239 154.854 26.3749C154.958 26.5108 155.137 26.5938 155.39 26.624V29.0926C154.869 29.1983 154.444 29.2512 154.116 29.2512C153.579 29.2512 153.132 29.1153 152.774 28.8435C152.432 28.5717 152.238 28.2169 152.193 27.7791L152.148 27.0317C151.716 27.7715 151.127 28.3377 150.382 28.7303C149.652 29.1228 148.884 29.3191 148.079 29.3191C147.275 29.3191 146.529 29.1606 145.844 28.8435C145.173 28.5264 144.584 28.0886 144.078 27.5299C143.586 26.9713 143.198 26.3221 142.915 25.5822C142.647 24.8273 142.513 24.0195 142.513 23.1589ZM151.701 24.7443V21.9133C151.552 21.4754 151.314 21.0828 150.986 20.7356C150.658 20.3883 150.293 20.1165 149.89 19.9203C149.488 19.7089 149.086 19.6032 148.683 19.6032C148.221 19.6032 147.804 19.7013 147.431 19.8976C147.059 20.0939 146.731 20.3581 146.447 20.6903C146.179 21.0225 145.971 21.4075 145.821 21.8453C145.687 22.2832 145.62 22.7437 145.62 23.2268C145.62 23.71 145.695 24.1705 145.844 24.6084C146.008 25.0311 146.239 25.401 146.537 25.7181C146.835 26.0352 147.178 26.2843 147.565 26.4655C147.968 26.6467 148.4 26.7373 148.862 26.7373C149.145 26.7373 149.428 26.692 149.712 26.6014C150.01 26.4957 150.285 26.3598 150.539 26.1937C150.807 26.0125 151.038 25.8012 151.232 25.5596C151.44 25.3029 151.597 25.0311 151.701 24.7443Z" fill="white"/>
<path d="M163.07 29.3191C162.131 29.3191 161.282 29.1606 160.522 28.8435C159.762 28.5113 159.113 28.0659 158.577 27.5073C158.04 26.9335 157.623 26.2843 157.325 25.5596C157.042 24.8197 156.9 24.0422 156.9 23.2268C156.9 22.0944 157.146 21.0602 157.638 20.1241C158.144 19.188 158.86 18.4406 159.784 17.8819C160.723 17.3082 161.826 17.0213 163.093 17.0213C164.375 17.0213 165.47 17.3082 166.379 17.8819C167.288 18.4406 167.981 19.188 168.458 20.1241C168.95 21.0451 169.196 22.0416 169.196 23.1136C169.196 23.2948 169.189 23.4835 169.174 23.6798C169.159 23.861 169.144 24.012 169.129 24.1328H160.075C160.134 24.7367 160.306 25.2652 160.589 25.7181C160.887 26.1711 161.26 26.5183 161.707 26.7599C162.169 26.9864 162.661 27.0996 163.182 27.0996C163.778 27.0996 164.337 26.9562 164.859 26.6693C165.396 26.3673 165.761 25.9748 165.954 25.4916L168.525 26.2164C168.242 26.8203 167.832 27.3563 167.296 27.8244C166.774 28.2924 166.156 28.6623 165.44 28.9341C164.725 29.1908 163.935 29.3191 163.07 29.3191ZM160.008 22.2077H166.133C166.074 21.6037 165.902 21.0828 165.619 20.645C165.351 20.192 164.993 19.8448 164.546 19.6032C164.099 19.3465 163.6 19.2182 163.048 19.2182C162.511 19.2182 162.02 19.3465 161.573 19.6032C161.14 19.8448 160.783 20.192 160.499 20.645C160.231 21.0828 160.067 21.6037 160.008 22.2077Z" fill="white"/>
<path d="M75.551 49.8532V39.2993L71.482 47.1581H69.7606L65.6916 39.2993V49.8532H62.6064V33.7732H65.9152L70.6101 42.9229L75.3498 33.7732H78.6362V49.8532H75.551Z" fill="white"/>
<path d="M81.5478 45.4142V37.9857H84.5436V44.7574C84.5436 45.6633 84.7076 46.3503 85.0355 46.8184C85.3634 47.2713 85.8478 47.4978 86.4887 47.4978C86.8762 47.4978 87.2563 47.4223 87.6289 47.2713C88.0164 47.1053 88.3666 46.8637 88.6796 46.5466C89.0075 46.2295 89.2833 45.8294 89.5068 45.3463V37.9857H92.5027V46.456C92.5027 46.7731 92.5548 46.9996 92.6592 47.1355C92.7784 47.2713 92.9647 47.3544 93.2181 47.3846V49.8532C92.92 49.8985 92.6666 49.9287 92.4579 49.9438C92.2642 49.974 92.0853 49.9891 91.9214 49.9891C91.3848 49.9891 90.9451 49.8683 90.6023 49.6267C90.2744 49.37 90.0807 49.0228 90.0211 48.5849L89.954 47.6337C89.4323 48.4339 88.7616 49.0454 87.9419 49.4682C87.1221 49.8758 86.2204 50.0797 85.2367 50.0797C84.0294 50.0797 83.1128 49.6871 82.4868 48.902C81.8608 48.1018 81.5478 46.9392 81.5478 45.4142Z" fill="white"/>
<path d="M94.7644 43.9195C94.7644 42.772 94.9879 41.7377 95.4351 40.8167C95.8822 39.8806 96.5007 39.1408 97.2907 38.5972C98.0806 38.0537 98.9823 37.7819 99.9958 37.7819C100.86 37.7819 101.635 38.0008 102.321 38.4387C103.021 38.8614 103.565 39.405 103.953 40.0693V33.3202H106.949V46.456C106.949 46.7731 107.001 46.9996 107.105 47.1355C107.21 47.2713 107.388 47.3544 107.642 47.3846V49.8532C107.12 49.9589 106.695 50.0117 106.368 50.0117C105.831 50.0117 105.384 49.8758 105.026 49.6041C104.683 49.3323 104.49 48.9775 104.445 48.5396L104.4 47.7922C103.968 48.5321 103.379 49.0983 102.634 49.4908C101.904 49.8834 101.136 50.0797 100.331 50.0797C99.5263 50.0797 98.7811 49.9211 98.0955 49.6041C97.4248 49.287 96.8361 48.8491 96.3293 48.2905C95.8375 47.7318 95.45 47.0826 95.1668 46.3428C94.8985 45.5878 94.7644 44.7801 94.7644 43.9195ZM103.953 45.5048V42.6738C103.804 42.236 103.565 41.8434 103.238 41.4961C102.91 41.1489 102.545 40.8771 102.142 40.6808C101.74 40.4694 101.337 40.3637 100.935 40.3637C100.473 40.3637 100.055 40.4619 99.6828 40.6582C99.3102 40.8544 98.9823 41.1187 98.6992 41.4508C98.4309 41.783 98.2222 42.168 98.0732 42.6059C97.939 43.0437 97.8719 43.5042 97.8719 43.9874C97.8719 44.4706 97.9465 44.9311 98.0955 45.3689C98.2595 45.7917 98.4905 46.1616 98.7886 46.4787C99.0867 46.7957 99.4295 47.0449 99.817 47.226C100.219 47.4072 100.652 47.4978 101.114 47.4978C101.397 47.4978 101.68 47.4525 101.963 47.3619C102.261 47.2562 102.537 47.1204 102.79 46.9543C103.059 46.7731 103.29 46.5617 103.484 46.3201C103.692 46.0635 103.849 45.7917 103.953 45.5048Z" fill="white"/>
<path d="M109.085 46.3428C109.085 45.5728 109.293 44.9009 109.711 44.3271C110.143 43.7383 110.739 43.2853 111.499 42.9682C112.259 42.6512 113.131 42.4926 114.115 42.4926C114.607 42.4926 115.106 42.5304 115.613 42.6059C116.12 42.6814 116.559 42.8022 116.932 42.9682V42.3341C116.932 41.5792 116.708 40.9979 116.261 40.5902C115.829 40.1826 115.181 39.9787 114.316 39.9787C113.675 39.9787 113.064 40.092 112.483 40.3184C111.902 40.5449 111.29 40.8771 110.65 41.3149L109.688 39.3219C110.463 38.8086 111.253 38.4236 112.058 38.1669C112.878 37.9102 113.735 37.7819 114.629 37.7819C116.298 37.7819 117.595 38.2046 118.519 39.0502C119.458 39.8957 119.928 41.1036 119.928 42.6738V46.456C119.928 46.7731 119.98 46.9996 120.084 47.1355C120.203 47.2713 120.39 47.3544 120.643 47.3846V49.8532C120.375 49.8985 120.129 49.9362 119.905 49.9664C119.697 49.9966 119.518 50.0117 119.369 50.0117C118.773 50.0117 118.318 49.8758 118.005 49.6041C117.707 49.3323 117.521 49.0001 117.446 48.6076L117.379 47.9961C116.872 48.6604 116.239 49.1738 115.479 49.5361C114.718 49.8985 113.943 50.0797 113.154 50.0797C112.378 50.0797 111.678 49.9211 111.052 49.6041C110.441 49.2719 109.956 48.8265 109.599 48.2678C109.256 47.6941 109.085 47.0524 109.085 46.3428ZM116.373 46.9543C116.537 46.7731 116.671 46.5919 116.775 46.4107C116.88 46.2295 116.932 46.0635 116.932 45.9125V44.7121C116.574 44.5611 116.187 44.4479 115.769 44.3724C115.352 44.2818 114.957 44.2365 114.584 44.2365C113.809 44.2365 113.168 44.4102 112.662 44.7574C112.17 45.0896 111.924 45.535 111.924 46.0937C111.924 46.3956 112.006 46.6825 112.17 46.9543C112.334 47.226 112.572 47.445 112.885 47.6111C113.198 47.7771 113.571 47.8602 114.003 47.8602C114.45 47.8602 114.89 47.7771 115.322 47.6111C115.754 47.4299 116.105 47.2109 116.373 46.9543Z" fill="white"/>
<path d="M133.615 49.8532H130.619V43.1947C130.619 42.2435 130.455 41.549 130.127 41.1111C129.799 40.6733 129.345 40.4543 128.763 40.4543C128.361 40.4543 127.951 40.56 127.534 40.7714C127.131 40.9828 126.766 41.2772 126.438 41.6547C126.11 42.017 125.872 42.4398 125.723 42.9229V49.8532H122.727V37.9857H125.432V40.1826C125.73 39.6692 126.11 39.2389 126.572 38.8916C127.034 38.5293 127.564 38.2575 128.16 38.0763C128.771 37.88 129.412 37.7819 130.082 37.7819C130.813 37.7819 131.409 37.9178 131.871 38.1895C132.348 38.4462 132.706 38.801 132.944 39.254C133.198 39.6919 133.369 40.1901 133.458 40.7488C133.563 41.3074 133.615 41.8736 133.615 42.4473V49.8532Z" fill="white"/>
<path d="M141.675 50.0797C140.721 50.0797 139.864 49.9211 139.104 49.6041C138.344 49.2719 137.695 48.8189 137.159 48.2452C136.622 47.6564 136.205 46.992 135.907 46.2522C135.624 45.5124 135.482 44.7348 135.482 43.9195C135.482 42.8022 135.728 41.783 136.22 40.862C136.727 39.9259 137.442 39.1785 138.366 38.6199C139.29 38.0612 140.386 37.7819 141.652 37.7819C142.919 37.7819 144.007 38.0612 144.917 38.6199C145.826 39.1785 146.504 39.9108 146.951 40.8167L144.022 41.7226C143.769 41.2848 143.434 40.9526 143.016 40.7261C142.599 40.4845 142.137 40.3637 141.63 40.3637C141.064 40.3637 140.542 40.5147 140.065 40.8167C139.603 41.1036 139.238 41.5188 138.97 42.0623C138.701 42.5908 138.567 43.2098 138.567 43.9195C138.567 44.614 138.701 45.233 138.97 45.7766C139.253 46.305 139.625 46.7278 140.087 47.0449C140.55 47.3468 141.064 47.4978 141.63 47.4978C141.988 47.4978 142.323 47.4374 142.636 47.3166C142.964 47.1959 143.255 47.0298 143.508 46.8184C143.761 46.607 143.948 46.3654 144.067 46.0937L146.996 46.9996C146.727 47.5884 146.332 48.1169 145.811 48.5849C145.304 49.053 144.7 49.4229 144 49.6947C143.314 49.9513 142.539 50.0797 141.675 50.0797ZM141.362 54.4054C140.959 54.4054 140.527 54.345 140.065 54.2242C139.603 54.1185 139.141 53.9525 138.679 53.726L139.439 52.118C139.663 52.269 139.886 52.3822 140.11 52.4577C140.348 52.5483 140.594 52.5936 140.848 52.5936C141.235 52.5936 141.533 52.503 141.742 52.3218C141.965 52.1557 142.077 51.9066 142.077 51.5744C142.077 51.2574 141.965 50.9554 141.742 50.6685C141.533 50.3967 141.228 50.125 140.825 49.8532L141.831 49.1964C142.427 49.589 142.919 50.0117 143.307 50.4647C143.694 50.9327 143.888 51.4989 143.888 52.1633C143.888 52.7974 143.672 53.3259 143.24 53.7486C142.822 54.1865 142.196 54.4054 141.362 54.4054Z" fill="white"/>
<path d="M148.034 46.3428C148.034 45.5728 148.243 44.9009 148.66 44.3271C149.092 43.7383 149.689 43.2853 150.449 42.9682C151.209 42.6512 152.081 42.4926 153.065 42.4926C153.556 42.4926 154.056 42.5304 154.562 42.6059C155.069 42.6814 155.509 42.8022 155.881 42.9682V42.3341C155.881 41.5792 155.658 40.9979 155.211 40.5902C154.779 40.1826 154.13 39.9787 153.266 39.9787C152.625 39.9787 152.014 40.092 151.432 40.3184C150.851 40.5449 150.24 40.8771 149.599 41.3149L148.638 39.3219C149.413 38.8086 150.203 38.4236 151.008 38.1669C151.827 37.9102 152.684 37.7819 153.579 37.7819C155.248 37.7819 156.545 38.2046 157.469 39.0502C158.408 39.8957 158.877 41.1036 158.877 42.6738V46.456C158.877 46.7731 158.929 46.9996 159.034 47.1355C159.153 47.2713 159.339 47.3544 159.593 47.3846V49.8532C159.324 49.8985 159.079 49.9362 158.855 49.9664C158.646 49.9966 158.467 50.0117 158.318 50.0117C157.722 50.0117 157.268 49.8758 156.955 49.6041C156.657 49.3323 156.47 49.0001 156.396 48.6076L156.329 47.9961C155.822 48.6604 155.188 49.1738 154.428 49.5361C153.668 49.8985 152.893 50.0797 152.103 50.0797C151.328 50.0797 150.628 49.9211 150.002 49.6041C149.391 49.2719 148.906 48.8265 148.548 48.2678C148.206 47.6941 148.034 47.0524 148.034 46.3428ZM155.323 46.9543C155.487 46.7731 155.621 46.5919 155.725 46.4107C155.829 46.2295 155.881 46.0635 155.881 45.9125V44.7121C155.524 44.5611 155.136 44.4479 154.719 44.3724C154.302 44.2818 153.907 44.2365 153.534 44.2365C152.759 44.2365 152.118 44.4102 151.611 44.7574C151.119 45.0896 150.874 45.535 150.874 46.0937C150.874 46.3956 150.956 46.6825 151.119 46.9543C151.283 47.226 151.522 47.445 151.835 47.6111C152.148 47.7771 152.521 47.8602 152.953 47.8602C153.4 47.8602 153.84 47.7771 154.272 47.6111C154.704 47.4299 155.054 47.2109 155.323 46.9543Z" fill="white"/>
<path d="M165.992 50.0797C164.993 50.0797 164.039 49.9136 163.13 49.5814C162.221 49.2493 161.438 48.7586 160.783 48.1093L161.856 46.1389C162.556 46.7127 163.242 47.1355 163.912 47.4072C164.598 47.679 165.254 47.8149 165.88 47.8149C166.461 47.8149 166.923 47.7092 167.266 47.4978C167.624 47.2864 167.803 46.9694 167.803 46.5466C167.803 46.2597 167.706 46.0408 167.512 45.8898C167.318 45.7237 167.035 45.5803 166.662 45.4595C166.305 45.3387 165.865 45.2028 165.343 45.0518C164.479 44.765 163.756 44.4857 163.175 44.2139C162.593 43.9421 162.154 43.6024 161.856 43.1947C161.572 42.772 161.431 42.236 161.431 41.5867C161.431 40.8016 161.625 40.1297 162.012 39.5711C162.415 38.9973 162.966 38.5519 163.667 38.2348C164.382 37.9178 165.217 37.7592 166.171 37.7592C167.005 37.7592 167.795 37.8951 168.54 38.1669C169.286 38.4236 169.964 38.8463 170.575 39.4352L169.368 41.3602C168.771 40.8922 168.205 40.5525 167.668 40.3411C167.132 40.1146 166.588 40.0014 166.036 40.0014C165.723 40.0014 165.425 40.0391 165.142 40.1146C164.874 40.1901 164.65 40.3184 164.471 40.4996C164.307 40.6657 164.225 40.9073 164.225 41.2244C164.225 41.5112 164.3 41.7377 164.449 41.9038C164.613 42.0548 164.851 42.1907 165.164 42.3115C165.492 42.4322 165.887 42.5681 166.349 42.7191C167.288 42.9909 168.078 43.2702 168.719 43.5571C169.375 43.844 169.867 44.1988 170.195 44.6215C170.523 45.0292 170.687 45.5954 170.687 46.3201C170.687 47.4978 170.262 48.4188 169.412 49.0832C168.563 49.7475 167.422 50.0797 165.992 50.0797Z" fill="white"/>
<path d="M0 5.43327C0 2.43256 2.43256 0 5.43327 0H24.4497V24.4497H5.43327C2.43256 24.4497 0 22.0171 0 19.0164V5.43327Z" fill="#CECECE"/>
<path d="M0 16.979C0 13.9782 2.43256 11.5457 5.43327 11.5457H24.4497V24.4497H5.43327C2.43256 24.4497 0 22.0171 0 19.0164V16.979Z" fill="#EBEBEB"/>
<path d="M25.8079 24.4497H44.8243C47.825 24.4497 50.2576 26.8823 50.2576 29.883V48.8994H31.2411C28.2404 48.8994 25.8079 46.4668 25.8079 43.4661V24.4497Z" fill="#188DCE"/>
<path d="M38.0327 24.4497H44.8243C47.825 24.4497 50.2576 26.8823 50.2576 29.883V48.8994H43.466C40.4653 48.8994 38.0327 46.4668 38.0327 43.4661V24.4497Z" fill="#1478AF"/>
<path d="M27.8458 10.8665C27.4707 10.8665 27.1666 11.1706 27.1666 11.5457C27.1666 11.9208 27.4707 12.2248 27.8458 12.2248H32.5999C33.3501 12.2248 33.9582 12.833 33.9582 13.5831V16.8092H31.3892C30.8122 16.8092 30.4981 17.4832 30.8692 17.9251L34.1173 21.7929C34.3887 22.1161 34.886 22.1161 35.1575 21.7929L38.4056 17.9251C38.7767 17.4832 38.4625 16.8092 37.8855 16.8092H35.3165V13.5831C35.3165 12.0828 34.1002 10.8665 32.5999 10.8665H27.8458Z" fill="#E7D28A"/>
<path d="M16.5624 27.1065C16.291 26.7833 15.7937 26.7833 15.5223 27.1065L12.2741 30.9743C11.9031 31.4162 12.2172 32.0902 12.7942 32.0902H15.3632V35.3162C15.3632 36.8166 16.5795 38.0328 18.0798 38.0328H22.8339C23.209 38.0328 23.5131 37.7288 23.5131 37.3537C23.5131 36.9786 23.209 36.6745 22.8339 36.6745H18.0798C17.3297 36.6745 16.7215 36.0664 16.7215 35.3162V32.0902H19.2905C19.8675 32.0902 20.1816 31.4162 19.8106 30.9743L16.5624 27.1065Z" fill="#E7D28A"/>
</svg>
